<mxfile host="app.diagrams.net" modified="2023-06-06T14:36:32.055Z" agent="Mozilla/5.0 (X11; Linux x86_64) AppleWebKit/537.36 (KHTML, like Gecko) Chrome/113.0.0.0 Safari/537.36" etag="iuahNSn4x2GoKaxlbeEA" version="21.3.2" type="github">
  <diagram name="Page-1" id="2tLb0r0LkJNJJE81Z-Nl">
    <mxGraphModel dx="1730" dy="495" grid="1" gridSize="10" guides="1" tooltips="1" connect="1" arrows="1" fold="1" page="1" pageScale="1" pageWidth="850" pageHeight="1100" math="0" shadow="0">
      <root>
        <mxCell id="0" />
        <mxCell id="1" parent="0" />
        <mxCell id="TizN6uBxQhdyMVuGbTVz-29" style="edgeStyle=orthogonalEdgeStyle;rounded=0;orthogonalLoop=1;jettySize=auto;html=1;exitX=0.5;exitY=0.5;exitDx=0;exitDy=0;exitPerimeter=0;entryX=0;entryY=0.5;entryDx=0;entryDy=0;" edge="1" parent="1" source="TizN6uBxQhdyMVuGbTVz-6" target="TizN6uBxQhdyMVuGbTVz-14">
          <mxGeometry relative="1" as="geometry">
            <mxPoint x="220" y="250" as="targetPoint" />
            <Array as="points">
              <mxPoint x="-45" y="340" />
              <mxPoint x="220" y="340" />
              <mxPoint x="220" y="300" />
            </Array>
          </mxGeometry>
        </mxCell>
        <mxCell id="TizN6uBxQhdyMVuGbTVz-30" style="edgeStyle=orthogonalEdgeStyle;rounded=0;orthogonalLoop=1;jettySize=auto;html=1;exitX=1;exitY=0.3333333333333333;exitDx=0;exitDy=0;exitPerimeter=0;entryX=0;entryY=0.5;entryDx=0;entryDy=0;" edge="1" parent="1" source="TizN6uBxQhdyMVuGbTVz-6" target="TizN6uBxQhdyMVuGbTVz-13">
          <mxGeometry relative="1" as="geometry" />
        </mxCell>
        <mxCell id="TizN6uBxQhdyMVuGbTVz-31" style="edgeStyle=orthogonalEdgeStyle;rounded=0;orthogonalLoop=1;jettySize=auto;html=1;exitX=1;exitY=1;exitDx=0;exitDy=0;exitPerimeter=0;entryX=0;entryY=0.5;entryDx=0;entryDy=0;" edge="1" parent="1" source="TizN6uBxQhdyMVuGbTVz-6" target="TizN6uBxQhdyMVuGbTVz-15">
          <mxGeometry relative="1" as="geometry">
            <Array as="points">
              <mxPoint x="-30" y="370" />
              <mxPoint x="-30" y="385" />
              <mxPoint x="125" y="385" />
              <mxPoint x="125" y="420" />
            </Array>
          </mxGeometry>
        </mxCell>
        <mxCell id="TizN6uBxQhdyMVuGbTVz-6" value="member" style="shape=umlActor;verticalLabelPosition=bottom;verticalAlign=top;html=1;outlineConnect=0;" vertex="1" parent="1">
          <mxGeometry x="-70" y="310" width="30" height="60" as="geometry" />
        </mxCell>
        <mxCell id="TizN6uBxQhdyMVuGbTVz-10" value="Library System" style="swimlane;startSize=0;" vertex="1" parent="1">
          <mxGeometry x="150" y="200" width="600" height="420" as="geometry">
            <mxRectangle x="400" y="280" width="50" height="40" as="alternateBounds" />
          </mxGeometry>
        </mxCell>
        <mxCell id="TizN6uBxQhdyMVuGbTVz-13" value="Authenticate" style="ellipse;whiteSpace=wrap;html=1;" vertex="1" parent="TizN6uBxQhdyMVuGbTVz-10">
          <mxGeometry x="170" y="30" width="120" height="40" as="geometry" />
        </mxCell>
        <mxCell id="TizN6uBxQhdyMVuGbTVz-14" value="Reserve a Book" style="ellipse;whiteSpace=wrap;html=1;" vertex="1" parent="TizN6uBxQhdyMVuGbTVz-10">
          <mxGeometry x="170" y="110" width="120" height="40" as="geometry" />
        </mxCell>
        <mxCell id="TizN6uBxQhdyMVuGbTVz-15" value="Return a Book" style="ellipse;whiteSpace=wrap;html=1;" vertex="1" parent="TizN6uBxQhdyMVuGbTVz-10">
          <mxGeometry x="120" y="200" width="120" height="40" as="geometry" />
        </mxCell>
        <mxCell id="TizN6uBxQhdyMVuGbTVz-28" value="&amp;lt;&amp;lt;extends&amp;gt;&amp;gt;" style="edgeStyle=orthogonalEdgeStyle;rounded=0;orthogonalLoop=1;jettySize=auto;html=1;dashed=1;" edge="1" parent="TizN6uBxQhdyMVuGbTVz-10" source="TizN6uBxQhdyMVuGbTVz-16" target="TizN6uBxQhdyMVuGbTVz-15">
          <mxGeometry relative="1" as="geometry" />
        </mxCell>
        <mxCell id="TizN6uBxQhdyMVuGbTVz-16" value="generate fine list" style="ellipse;whiteSpace=wrap;html=1;" vertex="1" parent="TizN6uBxQhdyMVuGbTVz-10">
          <mxGeometry x="350" y="200" width="120" height="40" as="geometry" />
        </mxCell>
        <mxCell id="TizN6uBxQhdyMVuGbTVz-32" value="Create Record" style="ellipse;whiteSpace=wrap;html=1;" vertex="1" parent="TizN6uBxQhdyMVuGbTVz-10">
          <mxGeometry x="360" y="30" width="120" height="40" as="geometry" />
        </mxCell>
        <mxCell id="TizN6uBxQhdyMVuGbTVz-33" value="Update Record" style="ellipse;whiteSpace=wrap;html=1;" vertex="1" parent="TizN6uBxQhdyMVuGbTVz-10">
          <mxGeometry x="360" y="110" width="120" height="40" as="geometry" />
        </mxCell>
        <mxCell id="TizN6uBxQhdyMVuGbTVz-34" value="Delete Record" style="ellipse;whiteSpace=wrap;html=1;" vertex="1" parent="TizN6uBxQhdyMVuGbTVz-10">
          <mxGeometry x="380" y="270" width="120" height="40" as="geometry" />
        </mxCell>
        <mxCell id="TizN6uBxQhdyMVuGbTVz-39" value="Transact" style="ellipse;whiteSpace=wrap;html=1;" vertex="1" parent="TizN6uBxQhdyMVuGbTVz-10">
          <mxGeometry x="390" y="340" width="120" height="40" as="geometry" />
        </mxCell>
        <mxCell id="TizN6uBxQhdyMVuGbTVz-35" style="edgeStyle=orthogonalEdgeStyle;rounded=0;orthogonalLoop=1;jettySize=auto;html=1;entryX=1;entryY=0.5;entryDx=0;entryDy=0;" edge="1" parent="1" source="TizN6uBxQhdyMVuGbTVz-11" target="TizN6uBxQhdyMVuGbTVz-32">
          <mxGeometry relative="1" as="geometry" />
        </mxCell>
        <mxCell id="TizN6uBxQhdyMVuGbTVz-36" style="edgeStyle=orthogonalEdgeStyle;rounded=0;orthogonalLoop=1;jettySize=auto;html=1;entryX=1;entryY=0.5;entryDx=0;entryDy=0;" edge="1" parent="1" source="TizN6uBxQhdyMVuGbTVz-11" target="TizN6uBxQhdyMVuGbTVz-33">
          <mxGeometry relative="1" as="geometry">
            <Array as="points">
              <mxPoint x="730" y="350" />
              <mxPoint x="730" y="380" />
              <mxPoint x="640" y="380" />
            </Array>
          </mxGeometry>
        </mxCell>
        <mxCell id="TizN6uBxQhdyMVuGbTVz-37" style="edgeStyle=orthogonalEdgeStyle;rounded=0;orthogonalLoop=1;jettySize=auto;html=1;entryX=1;entryY=0.5;entryDx=0;entryDy=0;" edge="1" parent="1" source="TizN6uBxQhdyMVuGbTVz-11" target="TizN6uBxQhdyMVuGbTVz-34">
          <mxGeometry relative="1" as="geometry">
            <Array as="points">
              <mxPoint x="770" y="360" />
              <mxPoint x="770" y="490" />
            </Array>
          </mxGeometry>
        </mxCell>
        <mxCell id="TizN6uBxQhdyMVuGbTVz-11" value="Library" style="whiteSpace=wrap;html=1;aspect=fixed;" vertex="1" parent="1">
          <mxGeometry x="850" y="320" width="50" height="50" as="geometry" />
        </mxCell>
        <mxCell id="TizN6uBxQhdyMVuGbTVz-38" value="Library Database" style="whiteSpace=wrap;html=1;aspect=fixed;" vertex="1" parent="1">
          <mxGeometry x="850" y="528" width="60" height="60" as="geometry" />
        </mxCell>
      </root>
    </mxGraphModel>
  </diagram>
</mxfile>
